<?xml version="1.0" encoding="utf-8"?>
<!-- Generator: Adobe Illustrator 16.0.0, SVG Export Plug-In . SVG Version: 6.00 Build 0)  -->
<!DOCTYPE svg PUBLIC "-//W3C//DTD SVG 1.1//EN" "http://www.w3.org/Graphics/SVG/1.1/DTD/svg11.dtd">
<svg version="1.1" id="Layer_1" xmlns="http://www.w3.org/2000/svg" xmlns:xlink="http://www.w3.org/1999/xlink" x="0px" y="0px"
	 width="768px" height="1024px" viewBox="0 0 768 1024" enable-background="new 0 0 768 1024" xml:space="preserve">
<path fill="none" stroke="#000000" stroke-miterlimit="10" d="M131.429,828.857c0-36.293,29.421-65.715,65.714-65.715
	s65.714,29.422,65.714,65.715s-29.421,65.715-65.714,65.715"/>
<path fill="none" stroke="#000000" stroke-miterlimit="10" d="M257.924,773.193c26.079-25.24,67.682-24.561,92.922,1.52
	c25.24,26.078,24.56,67.682-1.52,92.922c-26.079,25.24-67.682,24.56-92.922-1.52"/>
<path fill="none" stroke="#000000" stroke-miterlimit="10" d="M197.143,747.429c0,0-11.428-156.571,65.714-235.429"/>
<path fill="none" stroke="#000000" stroke-miterlimit="10" d="M338.571,747.429c0,0-27.714-108.571,45.429-202.857"/>
<path fill="none" stroke="#000000" stroke-miterlimit="10" d="M256.404,503.143c0,0,50.738,15.715,83.596,17.143
	s51.429,30,51.429,30"/>
<path fill="none" stroke="#000000" stroke-miterlimit="10" d="M377.143,574.571c0,0,52.857,24.286,51.428-37.143
	c0,0,16.842-132.857-95.15-127.143S227.094,496.571,256.404,512"/>
<path fill="none" stroke="#000000" stroke-miterlimit="10" d="M384,426c0,0-41.914-12.857-50.1,15.714"/>
<path fill="none" stroke="#000000" stroke-miterlimit="10" d="M401.429,410.106c0,0,37.144-98.392,91.429-122.678
	s-47.143,105.659-80,135.687"/>
<path fill="none" stroke="#000000" stroke-miterlimit="10" d="M369.34,393.143c0,0-102.968-230-35.439-228.572
	s43.243,220,43.243,220"/>
<path fill="none" stroke="#000000" stroke-miterlimit="10" d="M415.714,310.286c0,0-0.027-155.728,39.272-145.721
	s-32.129,134.292-32.129,134.292"/>
<line fill="none" stroke="#000000" stroke-miterlimit="10" x1="167.143" y1="791.714" x2="120" y2="736"/>
<line fill="none" stroke="#000000" stroke-miterlimit="10" x1="178.571" y1="844.571" x2="125.714" y2="894.572"/>
<line fill="none" stroke="#000000" stroke-miterlimit="10" x1="197.143" y1="858.857" x2="229.702" y2="938.857"/>
<line fill="none" stroke="#000000" stroke-miterlimit="10" x1="333.9" y1="786" x2="401.429" y2="741.714"/>
<line fill="none" stroke="#000000" stroke-miterlimit="10" x1="312.872" y1="820.414" x2="401.429" y2="828.857"/>
<line fill="none" stroke="#000000" stroke-miterlimit="10" x1="294.286" y1="853.143" x2="323.917" y2="924.571"/>
<line fill="none" stroke="#000000" stroke-miterlimit="10" x1="213.422" y1="791.714" x2="238.329" y2="747.429"/>
</svg>
