<?xml version="1.0" encoding="utf-8"?>
<!-- Generator: Adobe Illustrator 16.0.0, SVG Export Plug-In . SVG Version: 6.00 Build 0)  -->
<!DOCTYPE svg PUBLIC "-//W3C//DTD SVG 1.1//EN" "http://www.w3.org/Graphics/SVG/1.1/DTD/svg11.dtd">
<svg version="1.1" id="Layer_1" xmlns="http://www.w3.org/2000/svg" xmlns:xlink="http://www.w3.org/1999/xlink" x="0px" y="0px"
	 width="568.708px" height="488.238px" viewBox="0 0 568.708 488.238" enable-background="new 0 0 568.708 488.238"
	 xml:space="preserve">
<g opacity="0.7">
	<polygon fill="#333333" points="505.395,294.238 48.728,421.638 48.382,330.349 505.395,201.238 	"/>
	<g>
		<path fill="#FFFFFF" d="M89.161,263.298l0.643,27.972c0.229,9.977-4.686,20.117-16.192,23.422l-24.08,6.913l-1.5-65.268
			l24.08-6.913c7.564-2.173,13.956,0.59,15.805,6.348C88.613,258.105,89.099,260.594,89.161,263.298z M70.626,306.162
			c5.328-1.529,6.619-6.029,6.499-11.251l-0.643-27.972c-0.121-5.222-1.599-8.927-6.927-7.396l-7.99,2.293l1.071,46.621
			L70.626,306.162z"/>
		<path fill="#FFFFFF" d="M122.494,285.357l-12.893,3.702l-2.208,15.933l-12.572,3.61l13.843-69.673l13.318-3.825l16.843,60.862
			l-13.319,3.825L122.494,285.357z M120.146,276.553l-4.586-22.24l-0.32,0.092L111.623,279L120.146,276.553z"/>
		<path fill="#FFFFFF" d="M159.917,289.912l-13.319,3.825l-1.499-65.268l13.318-3.825L159.917,289.912z"/>
		<path fill="#FFFFFF" d="M193.142,233.071l-0.062-2.705c-0.104-4.568-2.934-6.291-6.129-5.374c-3.41,0.98-5.918,3.858-5.85,6.842
			c0.064,2.797,0.753,4.758,3.914,6.949l13.624,9.508c5.45,3.785,8.834,6.38,9.012,14.119c0.216,9.418-8.72,17.238-19.375,20.299
			c-10.762,3.09-19.514,0.254-19.728-9.07l-0.156-6.807l13.425-3.855l0.139,6.061c0.092,4.01,2.694,5.233,6.104,4.254
			c3.303-0.948,5.917-3.857,5.83-7.68c-0.079-3.449-1.738-5.602-4.572-7.604l-11.311-6.795c-7.199-5.253-10.23-6.448-10.436-15.399
			c-0.203-8.858,7.764-16.871,19.165-20.145c11.294-3.243,19.42,0.337,19.619,9.008l0.104,4.569L193.142,233.071z"/>
		<path fill="#FFFFFF" d="M240.144,266.878l-12.893,3.702l-0.583-25.361l-16.473-35.44l12.999-3.732l9.78,28.915l0.213-0.062
			l7.907-33.994l13.105-3.762l-14.639,44.373L240.144,266.878z"/>
		<path fill="#FFFFFF" d="M334.968,173.956l1.499,65.268l-13.318,3.825l-0.924-40.187l-7.812,42.695l-9.164,2.631l-9.447-37.738
			l-0.213,0.061l0.924,40.186l-13.319,3.825l-1.499-65.268l18.006-5.17l9.422,36.62l0.213-0.061l7.733-41.546L334.968,173.956z"/>
		<path fill="#FFFFFF" d="M371.915,213.749l-12.893,3.701l-2.208,15.933l-12.572,3.61l13.843-69.673l13.319-3.824l16.842,60.862
			l-13.318,3.825L371.915,213.749z M369.568,204.943l-4.587-22.24l-0.32,0.091l-3.617,24.596L369.568,204.943z"/>
		<path fill="#FFFFFF" d="M426.179,213.467l-13.283-22.653c-1.812,0.521-3.729,1.071-4.263,1.225l0.604,26.293l-13.212,3.793
			l-1.499-65.268l22.268-6.394c12.786-3.671,19.048,2.79,19.288,13.233c0.223,9.697-4.428,17.32-10.757,21.954l14.705,23.84
			L426.179,213.467z M408.406,182.156l4.262-1.225c8.631-2.478,10.953-4.083,10.734-13.594c-0.119-5.221-1.599-8.926-6.819-7.427
			l-8.631,2.479L408.406,182.156z"/>
		<path fill="#FFFFFF" d="M459.738,203.833l-13.319,3.825l-1.499-65.268l13.318-3.825L459.738,203.833z"/>
		<path fill="#FFFFFF" d="M482.012,141.125l0.368,16.037l13.531-3.884l0.215,9.324l-13.532,3.885l0.489,21.259l20.35-5.843
			l0.215,9.324l-33.669,9.667l-1.499-65.268l32.177-9.239l0.215,9.324L482.012,141.125z"/>
	</g>
	<g>
		<path fill="#FFFFFF" d="M172.974,327.122l-8.531,30.392l-5.896,1.709l-2.997-15.603l-5.024,17.928l-5.896,1.709l-5.144-26.426
			l5.944-1.724l2.64,19.935l0.145-0.043l5.237-22.217l5.895-1.709l2.641,19.934l0.145-0.042l5.237-22.217L172.974,327.122z"/>
		<path fill="#FFFFFF" d="M182.29,328.407l-0.422,6.981l6.137-1.779l-0.246,4.06l-6.136,1.778l-0.561,9.256l9.231-2.675
			l-0.246,4.059l-15.27,4.427l1.717-28.415l14.594-4.231l-0.246,4.061L182.29,328.407z"/>
		<path fill="#FFFFFF" d="M212.018,335.74c-0.277,4.587-3.681,9.044-9.48,10.725l-8.987,2.606l1.717-28.416l7.83-2.27
			c5.604-1.625,8.635,0.09,8.362,4.596c-0.145,2.395-1.611,5.452-4.176,7.033C210.354,330.24,212.254,331.804,212.018,335.74z
			 M201.866,342.672c2.416-0.7,4.263-2.99,4.401-5.265c0.184-3.044-0.797-4.873-4.664-3.753l-1.208,0.351l-0.56,9.256
			L201.866,342.672z M200.655,329.702l0.29-0.084c4.301-1.247,5.072-2.228,5.237-4.948c0.122-2.029-0.723-2.98-2.849-2.364
			l-2.271,0.658L200.655,329.702z"/>
		<path fill="#FFFFFF" d="M243.672,314.598l-0.737,12.178c-0.262,4.344-2.81,8.791-8.027,10.304l-10.922,3.166l1.718-28.415
			l10.921-3.166c3.43-0.995,6.162,0.167,6.771,2.663C243.618,312.339,243.743,313.42,243.672,314.598z M233.896,333.384
			c2.416-0.699,3.152-2.668,3.29-4.942l0.735-12.178c0.137-2.272-0.381-3.876-2.798-3.176l-3.625,1.051l-1.227,20.296
			L233.896,333.384z"/>
		<path fill="#FFFFFF" d="M254.36,307.51l-0.422,6.981l6.137-1.779l-0.245,4.06l-6.136,1.779l-0.561,9.256l9.231-2.677l-0.247,4.06
			l-15.269,4.427l1.717-28.416l14.593-4.23l-0.246,4.061L254.36,307.51z"/>
		<path fill="#FFFFFF" d="M278.471,324.448l-6.427,1.863l-5.773-26.244l6.476-1.878l3.029,19.781l0.097-0.028l5.668-22.302
			l6.427-1.863L278.471,324.448z"/>
		<path fill="#FFFFFF" d="M297.294,295.061l-0.422,6.981l6.139-1.779l-0.246,4.06l-6.137,1.779l-0.56,9.255l9.229-2.675
			l-0.245,4.059l-15.271,4.427l1.718-28.415l14.594-4.231l-0.245,4.061L297.294,295.061z"/>
		<path fill="#FFFFFF" d="M322.797,307.607l-0.245,4.059l-13.965,4.049l1.718-28.415l6.04-1.752l-1.473,24.356L322.797,307.607z"/>
		<path fill="#FFFFFF" d="M344.219,283.329l-0.99,16.399c-0.177,2.923-3.094,7.198-9.135,8.949
			c-6.668,1.934-8.826-0.872-8.649-3.793l0.992-16.4c0.177-2.923,2.75-7.019,9.419-8.952
			C341.896,277.781,344.396,280.406,344.219,283.329z M338.177,285.12c0.051-0.852-0.822-2.114-2.562-1.61
			c-2.127,0.617-3.09,2.412-3.136,3.183l-0.989,16.359c-0.057,0.934,0.723,2.183,2.849,1.567c1.739-0.505,2.802-2.368,2.854-3.221
			L338.177,285.12z"/>
		<path fill="#FFFFFF" d="M357.18,290.419c-0.386,0.111-2.849,0.786-3.235,0.898l-0.691,11.446l-5.992,1.737l1.718-28.415
			l9.423-2.732c5.751-1.666,8.29,1.107,8.015,5.653C366.06,284.894,361.723,289.102,357.18,290.419z M355.412,286.664
			c3.916-1.135,5.052-1.863,5.302-6.004c0.137-2.272-0.383-3.877-2.799-3.176l-3.189,0.924l-0.521,8.606L355.412,286.664z"/>
		<path fill="#FFFFFF" d="M376.257,272.165l-0.422,6.981l6.137-1.779l-0.245,4.059l-6.138,1.779l-0.56,9.256l9.23-2.676
			l-0.246,4.059l-15.27,4.427l1.717-28.415l14.594-4.23l-0.245,4.06L376.257,272.165z"/>
		<path fill="#FFFFFF" d="M401.204,288.859l-5.058-9.779c-0.822,0.238-1.691,0.49-1.934,0.561l-0.692,11.447l-5.992,1.736
			l1.718-28.415l10.1-2.928c5.8-1.682,8.337,1.093,8.062,5.639c-0.256,4.222-2.594,7.572-5.566,9.63l5.644,10.289L401.204,288.859z
			 M394.473,275.338l1.934-0.561c3.913-1.135,5-1.849,5.251-5.99c0.138-2.272-0.382-3.876-2.75-3.19l-3.914,1.135L394.473,275.338z"
			/>
	</g>
	
		<rect x="83.596" y="355.41" transform="matrix(0.7242 0.6896 -0.6896 0.7242 276.8183 36.6432)" fill="#FFFFFF" width="18" height="18.001"/>
	
		<rect x="436.192" y="253.066" transform="matrix(0.7242 0.6896 -0.6896 0.7242 303.5016 -234.722)" fill="#FFFFFF" width="18.001" height="18.001"/>
</g>
</svg>
